<?xml version="1.0" encoding="UTF-8"?>
<svg id="_64" data-name="64" xmlns="http://www.w3.org/2000/svg" xmlns:xlink="http://www.w3.org/1999/xlink" viewBox="0 0 64 64">
  <defs>
    <linearGradient id="linear-gradient" x1="60.71" y1="3.02" x2="4.27" y2="59.99" gradientUnits="userSpaceOnUse">
      <stop offset="0" stop-color="#67cefa"/>
      <stop offset=".17" stop-color="#52aae1"/>
      <stop offset=".44" stop-color="#3578c0"/>
      <stop offset=".68" stop-color="#2054a7"/>
      <stop offset=".87" stop-color="#133e98"/>
      <stop offset=".99" stop-color="#0f3693"/>
    </linearGradient>
  </defs>
  <g>
    <rect x=".5" y=".5" width="63" height="63" rx="7.5" ry="7.5" style="fill: url(#linear-gradient);"/>
    <path d="M56,1c3.86,0,7,3.14,7,7v48c0,3.86-3.14,7-7,7H8c-3.86,0-7-3.14-7-7V8c0-3.86,3.14-7,7-7h48M56,0H8C3.58,0,0,3.58,0,8v48c0,4.42,3.58,8,8,8h48c4.42,0,8-3.58,8-8V8c0-4.42-3.58-8-8-8h0Z" style="fill: #fff;"/>
  </g>
  <g>
    <path d="M10.91,36.37c-.51-.52-.77-1.3-.77-2.34,0-.43.07-1,.21-1.69l1.77-8.35h3.74l-1.87,8.84c-.07.26-.1.54-.1.83,0,.35.08.59.25.74.16.15.44.22.82.22.5,0,.97-.21,1.4-.64s.75-.97.94-1.65h1.09c-.64,1.87-1.46,3.14-2.47,3.81-1.01.67-2,1-2.99,1-.83,0-1.5-.26-2.02-.78ZM13.24,21.99c-.4-.4-.6-.88-.6-1.46s.2-1.06.6-1.47.88-.61,1.46-.61,1.06.2,1.47.61.61.9.61,1.47-.2,1.06-.61,1.46-.9.6-1.47.6-1.06-.2-1.46-.6Z" style="fill: #fff;"/>
    <path d="M24.36,36.3c-.49-.56-.74-1.26-.74-2.09,0-.36.04-.78.13-1.23.09-.46.18-.91.27-1.34.1-.43.16-.71.2-.83.14-.61.27-1.2.39-1.79.12-.59.18-1.07.18-1.43,0-.88-.31-1.33-.94-1.33-.45,0-.85.22-1.2.66-.35.44-.62,1.02-.83,1.73l-1.77,8.35h-3.74l2.76-13h3.74l-.29,1.35c.87-.97,1.88-1.46,3.04-1.46.88,0,1.59.24,2.11.73.52.49.78,1.22.78,2.21,0,.5-.06,1.06-.18,1.68-.12.62-.29,1.37-.52,2.25-.14.54-.26,1.06-.38,1.57-.11.51-.17.91-.17,1.21,0,.35.08.62.23.81.16.19.42.29.81.29.52,0,.94-.19,1.25-.56.31-.37.62-.95.94-1.73h1.09c-.64,1.91-1.38,3.19-2.22,3.83-.84.65-1.71.98-2.61.98-1.06,0-1.83-.28-2.33-.85Z" style="fill: #fff;"/>
    <path d="M31.04,36.38c-.56-.51-.85-1.28-.85-2.3,0-.42.04-.83.13-1.25l1.87-8.84h3.74l-1.87,8.84c-.09.43-.13.75-.13.94,0,.57.29.86.88.86.8,0,1.54-.5,2.22-1.51.68-1,1.23-2.2,1.65-3.59s.62-2.58.62-3.59c-.03.09-.15.15-.34.19-.19.04-.36.07-.49.07-.29,0-.52-.14-.69-.42-.17-.28-.25-.58-.25-.91,0-.42.13-.75.4-1.01.27-.26.67-.39,1.21-.39.57,0,.99.21,1.25.64.26.42.39.97.39,1.62,0,1.56-.27,3.23-.81,5-.54,1.78-1.36,3.29-2.47,4.54s-2.49,1.87-4.13,1.87c-1,0-1.79-.26-2.35-.77Z" style="fill: #fff;"/>
    <path d="M41.94,36.11c-.75-.66-1.12-1.7-1.12-3.12,0-1.2.23-2.51.7-3.94.47-1.43,1.23-2.67,2.29-3.72,1.06-1.05,2.41-1.57,4.06-1.57,2.05,0,3.15,1.17,3.3,3.51.38-.09.72-.3,1.01-.64s.57-.72.83-1.16h.83c-.47.94-.88,1.67-1.25,2.2-.36.53-.84.96-1.43,1.29-.1,1.63-.44,3.06-1,4.29-.56,1.23-1.3,2.18-2.2,2.85-.9.67-1.9,1-2.99,1-1.28,0-2.3-.33-3.04-.99ZM47.82,33.2c.55-1.04.94-2.32,1.14-3.85-.42-.16-.62-.55-.62-1.17,0-.68.24-1.13.73-1.35-.04-.55-.13-.94-.27-1.16-.15-.22-.39-.33-.72-.33-.57,0-1.12.41-1.64,1.24-.52.82-.94,1.82-1.26,2.99-.32,1.17-.48,2.2-.48,3.08,0,.83.1,1.39.29,1.68s.54.43,1.04.43c.64,0,1.24-.52,1.79-1.56Z" style="fill: #fff;"/>
  </g>
</svg>